<svg xmlns="http://www.w3.org/2000/svg" viewBox="0 0 100 100" width="100" height="100">
  <defs>
    <linearGradient id="faceTop" x1="0%" y1="0%" x2="100%" y2="100%">
      <stop offset="0%" style="stop-color:#FF6B1A;stop-opacity:1" />
      <stop offset="100%" style="stop-color:#E8500A;stop-opacity:1" />
    </linearGradient>
    <linearGradient id="faceLeft" x1="0%" y1="0%" x2="100%" y2="0%">
      <stop offset="0%" style="stop-color:#1A1A1A;stop-opacity:1" />
      <stop offset="100%" style="stop-color:#2D2D2D;stop-opacity:1" />
    </linearGradient>
    <linearGradient id="faceRight" x1="0%" y1="0%" x2="100%" y2="0%">
      <stop offset="0%" style="stop-color:#3D3D3D;stop-opacity:1" />
      <stop offset="100%" style="stop-color:#555555;stop-opacity:1" />
    </linearGradient>
  </defs>

  <!-- Isometric cube -->
  <!-- Top face -->
  <polygon points="50,12 82,30 50,48 18,30" fill="url(#faceTop)" />
  <!-- Left face -->
  <polygon points="18,30 50,48 50,78 18,60" fill="url(#faceLeft)" />
  <!-- Right face -->
  <polygon points="50,48 82,30 82,60 50,78" fill="url(#faceRight)" />

  <!-- Shield overlay on top face (risk resilience symbol) -->
  <polygon points="50,18 58,23 58,33 50,38 42,33 42,23" fill="none" stroke="white" stroke-width="1.5" opacity="0.85"/>
  <line x1="50" y1="22" x2="50" y2="35" stroke="white" stroke-width="1.2" opacity="0.85"/>

  <!-- Edge highlights -->
  <line x1="50" y1="12" x2="82" y2="30" stroke="white" stroke-width="0.6" opacity="0.4"/>
  <line x1="50" y1="12" x2="18" y2="30" stroke="white" stroke-width="0.6" opacity="0.4"/>
  <line x1="50" y1="48" x2="50" y2="78" stroke="white" stroke-width="0.6" opacity="0.3"/>
</svg>
